<svg width="274" height="6" viewBox="0 0 274 6" fill="none" xmlns="http://www.w3.org/2000/svg">
<g clip-path="url(#clip0_135_90)">
<path fill-rule="evenodd" clip-rule="evenodd" d="M224.747 4.26095C224.842 4.08477 224.956 3.89155 224.83 3.704C225.095 3.39143 225.026 3.17547 224.792 2.88562C224.697 2.87426 224.608 2.87994 224.526 2.89131L224.52 2.88562C224.425 2.87426 224.337 2.87994 224.254 2.89131L224.248 2.88562C224.153 2.87426 224.065 2.87994 223.983 2.89131L223.976 2.88562C223.957 2.88562 223.938 2.88563 223.919 2.87994C223.976 2.78333 224.027 2.67535 224.096 2.5901C224.115 2.63557 224.147 2.66966 224.198 2.68671C224.235 2.61851 224.292 2.56737 224.349 2.51622C224.356 2.60147 224.393 2.6583 224.469 2.68671C224.596 2.46507 224.924 2.38551 224.874 2.10135C224.83 1.87402 224.431 1.62396 224.071 1.69784C223.983 1.6808 223.888 1.6808 223.799 1.69784C223.724 1.6808 223.641 1.68079 223.566 1.69216C223.616 1.35685 223.521 0.993131 223.3 0.765804C223.471 0.765804 223.3 0.646459 223.42 0.618043C223.243 0.527113 223.395 0.316836 223.268 0.203173C223.129 0.174757 223.073 0.0838267 222.997 0.00426237C222.915 -0.00142079 222.845 -0.00142079 222.775 0.00426237C222.706 -0.00142079 222.636 -0.00142079 222.573 0.00426237C222.504 -0.00142079 222.434 -0.00142079 222.371 0.00426237C222.301 -0.00142079 222.232 -0.00142079 222.169 0.00426237C222.099 -0.00142079 222.03 -0.00142079 221.966 0.00426237C221.897 -0.00142079 221.827 -0.00142079 221.764 0.00426237C221.695 -0.00142079 221.625 -0.00142079 221.562 0.00426237C221.492 -0.00142079 221.423 -0.00142079 221.36 0.00426237C221.29 -0.00142079 221.221 -0.00142079 221.157 0.00426237C221.088 -0.00142079 221.018 -0.00142079 220.955 0.00426237C220.886 -0.00142079 220.816 -0.00142079 220.753 0.00426237C220.683 -0.00142079 220.614 -0.00142079 220.551 0.00426237C220.481 -0.00142079 220.412 -0.00142079 220.348 0.00426237C220.279 -0.00142079 220.209 -0.00142079 220.146 0.00426237C220.077 -0.00142079 220.007 -0.00142079 219.944 0.00426237C219.874 -0.00142079 219.805 -0.00142079 219.742 0.00426237C219.672 -0.00142079 219.603 -0.00142079 219.539 0.00426237C219.47 -0.00142079 219.4 -0.00142079 219.337 0.00426237C219.268 -0.00142079 219.198 -0.00142079 219.135 0.00426237C219.065 -0.00142079 218.996 -0.00142079 218.933 0.00426237C218.863 -0.00142079 218.794 -0.00142079 218.73 0.00426237C218.661 -0.00142079 218.591 -0.00142079 218.528 0.00426237C218.459 -0.00142079 218.389 -0.00142079 218.326 0.00426237C218.256 -0.00142079 218.187 -0.00142079 218.124 0.00426237C218.054 -0.00142079 217.985 -0.00142079 217.921 0.00426237C217.852 -0.00142079 217.782 -0.00142079 217.719 0.00426237C217.65 -0.00142079 217.58 -0.00142079 217.517 0.00426237C217.447 -0.00142079 217.378 -0.00142079 217.315 0.00426237C217.245 -0.00142079 217.176 -0.00142079 217.112 0.00426237C217.043 -0.00142079 216.973 -0.00142079 216.91 0.00426237C216.841 -0.00142079 216.771 -0.00142079 216.708 0.00426237C216.638 -0.00142079 216.569 -0.00142079 216.506 0.00426237C216.436 -0.00142079 216.367 -0.00142079 216.303 0.00426237C216.234 -0.00142079 216.164 -0.00142079 216.101 0.00426237C216.032 -0.00142079 215.962 -0.00142079 215.899 0.00426237C215.829 -0.00142079 215.76 -0.00142079 215.697 0.00426237C215.627 -0.00142079 215.558 -0.00142079 215.494 0.00426237C215.425 -0.00142079 215.355 -0.00142079 215.292 0.00426237C215.223 -0.00142079 215.153 -0.00142079 215.09 0.00426237C215.02 -0.00142079 214.951 -0.00142079 214.888 0.00426237C214.818 -0.00142079 214.749 -0.00142079 214.685 0.00426237C214.616 -0.00142079 214.546 -0.00142079 214.483 0.00426237C214.414 -0.00142079 214.344 -0.00142079 214.281 0.00426237C214.211 -0.00142079 214.142 -0.00142079 214.079 0.00426237C214.009 -0.00142079 213.94 -0.00142079 213.876 0.00426237C213.807 -0.00142079 213.737 -0.00142079 213.674 0.00426237C213.605 -0.00142079 213.535 -0.00142079 213.472 0.00426237C213.402 -0.00142079 213.333 -0.00142079 213.27 0.00426237C213.2 -0.00142079 213.131 -0.00142079 213.067 0.00426237C212.998 -0.00142079 212.928 -0.00142079 212.865 0.00426237C212.796 -0.00142079 212.726 -0.00142079 212.663 0.00426237C212.593 -0.00142079 212.524 -0.00142079 212.461 0.00426237C212.391 -0.00142079 212.322 -0.00142079 212.258 0.00426237C212.189 -0.00142079 212.119 -0.00142079 212.056 0.00426237C211.987 -0.00142079 211.917 -0.00142079 211.854 0.00426237C211.784 -0.00142079 211.715 -0.00142079 211.652 0.00426237C211.582 -0.00142079 211.513 -0.00142079 211.449 0.00426237C211.38 -0.00142079 211.31 -0.00142079 211.247 0.00426237C211.178 -0.00142079 211.108 -0.00142079 211.045 0.00426237C210.975 -0.00142079 210.906 -0.00142079 210.843 0.00426237C210.773 -0.00142079 210.704 -0.00142079 210.64 0.00426237C210.571 -0.00142079 210.501 -0.00142079 210.438 0.00426237C210.369 -0.00142079 210.299 -0.00142079 210.236 0.00426237C210.166 -0.00142079 210.097 -0.00142079 210.034 0.00426237C209.964 -0.00142079 209.895 -0.00142079 209.831 0.00426237C209.762 -0.00142079 209.692 -0.00142079 209.629 0.00426237C209.56 -0.00142079 209.49 -0.00142079 209.427 0.00426237C209.357 -0.00142079 209.288 -0.00142079 209.225 0.00426237C209.155 -0.00142079 209.085 -0.00142079 209.022 0.00426237C208.953 -0.00142079 208.883 -0.00142079 208.82 0.00426237C208.751 -0.00142079 208.681 -0.00142079 208.618 0.00426237C208.548 -0.00142079 208.479 -0.00142079 208.416 0.00426237C208.346 -0.00142079 208.276 -0.00142079 208.213 0.00426237C208.144 -0.00142079 208.074 -0.00142079 208.011 0.00426237C207.941 -0.00142079 207.872 -0.00142079 207.809 0.00426237C207.739 -0.00142079 207.67 -0.00142079 207.607 0.00426237C207.537 -0.00142079 207.467 -0.00142079 207.404 0.00426237C207.335 -0.00142079 207.265 -0.00142079 207.202 0.00426237C207.132 -0.00142079 207.063 -0.00142079 207 0.00426237C206.93 -0.00142079 206.861 -0.00142079 206.798 0.00426237C206.728 -0.00142079 206.658 -0.00142079 206.595 0.00426237C206.526 -0.00142079 206.456 -0.00142079 206.393 0.00426237C206.323 -0.00142079 206.254 -0.00142079 206.191 0.00426237C206.121 -0.00142079 206.052 -0.00142079 205.989 0.00426237C205.919 -0.00142079 205.849 -0.00142079 205.786 0.00426237C205.717 -0.00142079 205.647 -0.00142079 205.584 0.00426237C205.514 -0.00142079 205.445 -0.00142079 205.382 0.00426237C205.312 -0.00142079 205.243 -0.00142079 205.18 0.00426237C205.11 -0.00142079 205.04 -0.00142079 204.977 0.00426237C204.908 -0.00142079 204.838 -0.00142079 204.775 0.00426237C204.705 -0.00142079 204.636 -0.00142079 204.573 0.00426237C204.503 -0.00142079 204.434 -0.00142079 204.37 0.00426237C204.301 -0.00142079 204.231 -0.00142079 204.168 0.00426237C204.099 -0.00142079 204.029 -0.00142079 203.966 0.00426237C203.896 -0.00142079 203.827 -0.00142079 203.764 0.00426237C203.694 -0.00142079 203.625 -0.00142079 203.561 0.00426237C203.492 -0.00142079 203.422 -0.00142079 203.359 0.00426237C203.29 -0.00142079 203.22 -0.00142079 203.157 0.00426237C203.087 -0.00142079 203.018 -0.00142079 202.955 0.00426237C202.885 -0.00142079 202.816 -0.00142079 202.752 0.00426237C202.683 -0.00142079 202.613 -0.00142079 202.55 0.00426237C202.481 -0.00142079 202.411 -0.00142079 202.348 0.00426237C202.278 -0.00142079 202.209 -0.00142079 202.146 0.00426237C202.076 -0.00142079 202.007 -0.00142079 201.943 0.00426237C201.874 -0.00142079 201.804 -0.00142079 201.741 0.00426237C201.672 -0.00142079 201.602 -0.00142079 201.539 0.00426237C201.469 -0.00142079 201.4 -0.00142079 201.337 0.00426237C201.267 -0.00142079 22.3679 -0.00142079 22.3047 0.00426237C22.2351 -0.00142079 22.1656 -0.00142079 22.1024 0.00426237C22.0329 -0.00142079 21.9634 -0.00142079 21.9002 0.00426237C21.8306 -0.00142079 21.7611 -0.00142079 21.6979 0.00426237C21.6284 -0.00142079 21.5589 -0.00142079 21.4957 0.00426237C21.4261 -0.00142079 21.3566 -0.00142079 21.2934 0.00426237C21.2239 -0.00142079 21.1543 -0.00142079 21.0911 0.00426237C21.0216 -0.00142079 20.9521 -0.00142079 20.8889 0.00426237C20.8194 -0.00142079 20.7498 -0.00142079 20.6866 0.00426237C20.6171 -0.00142079 20.5476 -0.00142079 20.4844 0.00426237C20.4149 -0.00142079 20.3453 -0.00142079 20.2821 0.00426237C20.2126 -0.00142079 20.1431 -0.00142079 20.0799 0.00426237C20.0104 -0.00142079 19.9408 -0.00142079 19.8776 0.00426237C19.8081 -0.00142079 19.7386 -0.00142079 19.6754 0.00426237C19.6059 -0.00142079 19.5363 -0.00142079 19.4731 0.00426237C19.4036 -0.00142079 19.3341 -0.00142079 19.2709 0.00426237C19.2014 -0.00142079 19.1318 -0.00142079 19.0686 0.00426237C18.9991 -0.00142079 18.9296 -0.00142079 18.8664 0.00426237C18.7968 -0.00142079 18.7273 -0.00142079 18.6641 0.00426237C18.5946 -0.00142079 18.5251 -0.00142079 18.4619 0.00426237C18.3923 -0.00142079 18.3228 -0.00142079 18.2596 0.00426237C18.1901 -0.00142079 18.1206 -0.00142079 18.0574 0.00426237C17.9878 -0.00142079 17.9183 -0.00142079 17.8551 0.00426237C17.7856 -0.00142079 17.7161 -0.00142079 17.6529 0.00426237C17.5833 -0.00142079 17.5138 -0.00142079 17.4506 0.00426237C17.3811 -0.00142079 17.3116 -0.00142079 17.2483 0.00426237C17.1788 -0.00142079 17.1093 -0.00142079 17.0461 0.00426237C16.9766 -0.00142079 16.907 -0.00142079 16.8438 0.00426237C16.7743 -0.00142079 16.7048 -0.00142079 16.6416 0.00426237C16.5721 -0.00142079 16.5025 -0.00142079 16.4393 0.00426237C16.3698 -0.00142079 16.3003 -0.00142079 16.2371 0.00426237C16.1676 -0.00142079 16.098 -0.00142079 16.0348 0.00426237C15.9653 -0.00142079 15.8958 -0.00142079 15.8326 0.00426237C15.7631 -0.00142079 15.6935 -0.00142079 15.6303 0.00426237C15.5608 -0.00142079 15.4913 -0.00142079 15.4281 0.00426237C15.3585 -0.00142079 15.289 -0.00142079 15.2258 0.00426237C15.1563 -0.00142079 15.0868 -0.00142079 15.0236 0.00426237C14.954 -0.00142079 14.8845 -0.00142079 14.8213 0.00426237C14.7518 -0.00142079 14.6823 -0.00142079 14.6191 0.00426237C14.5495 -0.00142079 14.48 -0.00142079 14.4168 0.00426237C14.3473 -0.00142079 14.2778 -0.00142079 14.2146 0.00426237C14.145 -0.00142079 14.0755 -0.00142079 14.0123 0.00426237C13.9428 -0.00142079 13.8733 -0.00142079 13.8101 0.00426237C13.7405 -0.00142079 13.671 -0.00142079 13.6078 0.00426237C13.5383 -0.00142079 13.4688 -0.00142079 13.4055 0.00426237C13.336 -0.00142079 13.2665 -0.00142079 13.2033 0.00426237C13.1338 -0.00142079 13.0642 -0.00142079 13.001 0.00426237C12.9315 -0.00142079 12.862 -0.00142079 12.7988 0.00426237C12.7293 -0.00142079 12.6597 -0.00142079 12.5965 0.00426237C12.527 -0.00142079 12.4575 -0.00142079 12.3943 0.00426237C12.3248 -0.00142079 12.2552 -0.00142079 12.192 0.00426237C12.1225 -0.00142079 12.053 -0.00142079 11.9898 0.00426237C11.9203 -0.00142079 11.8507 -0.00142079 11.7875 0.00426237C11.718 -0.00142079 11.6485 -0.00142079 11.5853 0.00426237C11.5158 -0.00142079 11.4462 -0.00142079 11.383 0.00426237C11.3135 -0.00142079 11.244 -0.00142079 11.1808 0.00426237C11.1112 -0.00142079 11.0417 -0.00142079 10.9785 0.00426237C10.909 -0.00142079 10.8395 -0.00142079 10.7763 0.00426237C10.7067 -0.00142079 10.6372 -0.00142079 10.574 0.00426237C10.5045 -0.00142079 10.435 -0.00142079 10.3718 0.00426237C10.3022 -0.00142079 10.2327 -0.00142079 10.1695 0.00426237C10.1 -0.00142079 10.0305 -0.00142079 9.96725 0.00426237C9.89773 -0.00142079 9.82821 -0.00142079 9.765 0.00426237C9.69548 -0.00142079 9.62596 -0.00142079 9.56276 0.00426237C9.49323 -0.00142079 9.4237 -0.00142079 9.3605 0.00426237C9.29097 -0.00142079 9.22145 -0.00142079 9.15825 0.00426237C9.08872 -0.00142079 9.0192 -0.00142079 8.95599 0.00426237C8.88647 -0.00142079 8.81695 -0.00142079 8.75374 0.00426237C8.68422 -0.00142079 8.6147 -0.00142079 8.55149 0.00426237C8.48197 -0.00142079 8.41244 -0.00142079 8.34924 0.00426237C8.27971 -0.00142079 8.21019 -0.00142079 8.14699 0.00426237C8.07746 -0.00142079 8.00793 -0.00142079 7.94473 0.00426237C7.8752 -0.00142079 7.80568 -0.00142079 7.74248 0.00426237C7.67295 -0.00142079 7.60343 -0.00142079 7.54023 0.00426237C7.47071 -0.00142079 7.40118 -0.00142079 7.33797 0.00426237C7.26845 -0.00142079 7.19893 -0.00142079 7.13572 0.00426237C7.0662 -0.00142079 6.99667 -0.00142079 6.93347 0.00426237C6.86394 -0.00142079 6.79442 -0.00142079 6.73122 0.00426237C6.66169 -0.00142079 6.59217 -0.00142079 6.52897 0.00426237C6.45944 -0.00142079 6.38991 -0.00142079 6.32671 0.00426237C6.25719 -0.00142079 6.18766 -0.00142079 6.12446 0.00426237C6.05494 -0.00142079 5.98541 -0.00142079 5.92221 0.00426237C5.85268 -0.00142079 5.78316 -0.00142079 5.71995 0.00426237C5.65043 -0.00142079 5.5809 -0.00142079 5.5177 0.00426237C5.44818 -0.00142079 5.37865 -0.00142079 5.31545 0.00426237C5.24592 -0.00142079 5.1764 -0.00142079 5.1132 0.00426237C5.04367 -0.00142079 4.97415 -0.00142079 4.91094 0.00426237C4.84142 -0.00142079 4.7719 -0.00142079 4.70869 0.00426237C4.63917 -0.00142079 4.56964 -0.00142079 4.50644 0.00426237C4.43691 -0.00142079 4.36739 -0.00142079 4.30418 0.00426237C4.23466 -0.00142079 4.16514 -0.00142079 4.10194 0.00426237C4.03241 -0.00142079 3.96289 -0.00142079 3.89968 0.00426237C3.83016 -0.00142079 3.76063 -0.00142079 3.69743 0.00426237C3.6279 -0.00142079 3.55838 -0.00142079 3.49518 0.00426237C3.42565 -0.00142079 3.35613 -0.00142079 3.29292 0.00426237C3.2234 -0.00142079 3.15388 -0.00142079 3.09067 0.00426237C3.02115 -0.00142079 2.95162 -0.00142079 2.88842 0.00426237C2.8189 -0.00142079 2.74937 -0.00142079 2.68617 0.00426237C2.61664 -0.00142079 2.54712 -0.00142079 2.48391 0.00426237C2.41439 -0.00142079 2.34486 -0.00142079 2.28166 0.00426237C2.21214 -0.00142079 2.14261 -0.00142079 2.07941 0.00426237C2.00989 -0.00142079 1.94036 -0.00142079 1.87716 0.00426237C1.80763 -0.00142079 1.73811 -0.00142079 1.6749 0.00426237C1.60538 -0.00142079 1.53585 -0.00142079 1.47265 0.00426237C1.40313 -0.00142079 1.3336 -0.00142079 1.2704 0.00426237C1.20087 -0.00142079 1.13135 -0.00142079 1.06815 0.00426237C0.720526 -0.0241534 0.505633 0.100873 0.151691 0.129289C0.0632055 0.271368 0.107447 0.407764 0 0.498695C0.031602 0.635091 0.158009 0.697606 0.271776 0.765804C0.227533 0.799903 0.252815 0.87947 0.208572 0.913569C0.316019 0.953351 0.35394 0.907883 0.448746 0.936299C0.448746 0.930616 0.448746 0.924932 0.448746 0.924932C0.518271 0.941982 0.556195 0.919251 0.613079 0.930617C0.606758 0.964716 0.600437 0.998813 0.600437 1.0386C0.398185 0.941982 0.360263 1.25456 0.360263 1.26024C0.360263 1.26592 0.297059 1.23182 0.297059 1.23751C0.240176 1.53871 0.707884 1.76036 0.568835 2.09567C0.606758 2.12408 0.676283 2.12408 0.752128 2.1184C0.764769 2.23774 0.726845 2.43666 0.632039 2.53327C0.669962 2.59579 0.752128 2.61283 0.752128 2.70377C0.676283 2.86858 0.480348 2.79469 0.448746 2.99929C0.556193 3.0277 0.669962 3.05044 0.632039 3.19252C0.752127 3.23798 0.878535 3.24367 0.992302 3.2323C1.06183 3.23798 1.12503 3.23798 1.19456 3.2323C1.26408 3.23798 1.32728 3.23798 1.3968 3.2323C1.46633 3.23798 1.52953 3.23798 1.59906 3.2323C1.66858 3.23798 1.73179 3.23798 1.80131 3.2323C1.87084 3.23798 1.93404 3.23798 2.00356 3.2323C2.07309 3.23798 2.13629 3.23798 2.20582 3.2323C2.27534 3.23798 2.33854 3.23798 2.40807 3.2323C2.47759 3.23798 2.5408 3.23798 2.61032 3.2323C2.67985 3.23798 2.74305 3.23798 2.81257 3.2323C2.8821 3.23798 2.9453 3.23798 3.01483 3.2323C3.08435 3.23798 3.14756 3.23798 3.21708 3.2323C3.26764 3.23798 3.31189 3.23798 3.36245 3.23798C3.29292 3.28913 3.24236 3.35164 3.24236 3.45394C3.21076 3.52214 3.40669 3.59034 3.40669 3.68127C3.40037 3.85744 3.38141 3.76083 3.52678 3.90859C3.55206 3.93701 3.5015 4.01658 3.52678 4.03931C3.58366 4.09614 3.65319 4.05067 3.72903 4.13592C3.8428 4.27232 3.8744 4.51101 4.17146 4.56216C4.00081 4.7156 3.95024 4.81222 3.88704 5.11911C3.77959 5.09069 3.58366 5.23277 3.40037 5.24982C3.46357 5.39758 3.40037 5.47146 3.40037 5.64196C3.71639 5.70447 3.93761 5.80677 4.16514 6C4.2473 6 4.32315 5.98295 4.38635 5.96022C4.40531 5.97158 4.41795 5.98295 4.43692 6C4.51908 6 4.59493 5.98295 4.65813 5.96022C4.67709 5.97158 4.68973 5.98295 4.70869 6C4.79086 6 4.8667 5.98295 4.92991 5.96022C4.94887 5.97158 4.96151 5.98295 4.98047 6C5.06263 6 5.13848 5.98295 5.20168 5.96022C5.22064 5.97158 5.23328 5.98295 5.25224 6C5.33441 6 5.41025 5.98295 5.47346 5.96022C5.49242 5.97158 5.50506 5.98295 5.52402 6C5.60619 6 5.68203 5.98295 5.74524 5.96022C5.7642 5.97158 5.77684 5.98295 5.7958 6C5.87796 6 5.95381 5.98295 6.01701 5.96022C6.03597 5.97158 6.04861 5.98295 6.06758 6C6.14974 6 6.22559 5.98295 6.28879 5.96022C6.30775 5.97158 6.32039 5.98295 6.33936 6C6.42152 6 6.49737 5.98295 6.56057 5.96022C6.57953 5.97158 6.59217 5.98295 6.61113 6C6.69329 6 6.76914 5.98295 6.83234 5.96022C6.8513 5.97158 6.86395 5.98295 6.88291 6C6.96507 6 7.04092 5.98295 7.10412 5.96022C7.12308 5.97158 7.13572 5.98295 7.15468 6C7.23685 6 7.31269 5.98295 7.37589 5.96022C7.39486 5.97158 7.4075 5.98295 7.42646 6C7.50862 6 7.58447 5.98295 7.64767 5.96022C7.66663 5.97158 7.67928 5.98295 7.69824 6C7.7804 6 7.85625 5.98295 7.91945 5.96022C7.93841 5.97158 7.95105 5.98295 7.97001 6C8.05218 6 8.12802 5.98295 8.19123 5.96022C8.21019 5.97158 8.22283 5.98295 8.24179 6C8.32396 6 8.3998 5.98295 8.46301 5.96022C8.48197 5.97158 8.4946 5.98295 8.51356 6C8.59573 6 8.67157 5.98295 8.73478 5.96022C8.75374 5.97158 8.76638 5.98295 8.78534 6C8.86751 6 8.94335 5.98295 9.00656 5.96022C9.02552 5.97158 9.03816 5.98295 9.05712 6C9.13929 6 9.21513 5.98295 9.27834 5.96022C9.2973 5.97158 9.30993 5.98295 9.3289 6C9.41106 6 9.48691 5.98295 9.55011 5.96022C9.56907 5.97158 9.58171 5.98295 9.60068 6C9.68284 6 9.75869 5.98295 9.82189 5.96022C9.84085 5.97158 9.85349 5.98295 9.87245 6C9.95461 6 10.0305 5.98295 10.0937 5.96022C10.1126 5.97158 10.1253 5.98295 10.1442 6C10.2264 6 10.3022 5.98295 10.3654 5.96022C10.3844 5.97158 10.397 5.98295 10.416 6C10.4982 6 10.574 5.98295 10.6372 5.96022C10.6562 5.97158 10.6688 5.98295 10.6878 6C10.7699 6 10.8458 5.98295 10.909 5.96022C10.928 5.97158 10.9406 5.98295 10.9596 6C11.0417 6 11.1176 5.98295 11.1808 5.96022C11.1997 5.97158 11.2124 5.98295 11.2313 6C11.3135 6 11.3893 5.98295 11.4525 5.96022C11.4715 5.97158 11.4842 5.98295 11.5031 6C11.5853 6 11.6611 5.98295 11.7243 5.96022C11.7433 5.97158 11.7559 5.98295 11.7749 6C11.8571 6 11.9329 5.98295 11.9961 5.96022C12.0151 5.97158 12.0277 5.98295 12.0467 6C12.1288 6 12.2047 5.98295 12.2679 5.96022C12.2868 5.97158 12.2995 5.98295 12.3184 6C12.4006 6 12.4765 5.98295 12.5397 5.96022C12.5586 5.97158 12.5713 5.98295 12.5902 6C12.6724 6 12.7482 5.98295 12.8114 5.96022C12.8304 5.97158 12.843 5.98295 12.862 6C12.9442 6 13.02 5.98295 13.0832 5.96022C13.1022 5.97158 13.1148 5.98295 13.1338 6C13.2159 6 13.2918 5.98295 13.355 5.96022C13.374 5.97158 13.3866 5.98295 13.4055 6C13.4877 6 13.5636 5.98295 13.6268 5.96022C13.6457 5.97158 13.6584 5.98295 13.6773 6C13.7595 6 13.8353 5.98295 13.8985 5.96022C13.9175 5.97158 13.9301 5.98295 13.9491 6C14.0313 6 14.1071 5.98295 14.1703 5.96022C14.1893 5.97158 14.2019 5.98295 14.2209 6C14.303 6 14.3789 5.98295 14.4421 5.96022C14.4611 5.97158 14.4737 5.98295 14.4927 6C14.5748 6 14.6507 5.98295 14.7139 5.96022C14.7328 5.97158 14.7455 5.98295 14.7644 6C14.8466 6 14.9224 5.98295 14.9856 5.96022C15.0046 5.97158 15.0173 5.98295 15.0362 6C15.1184 6 15.1942 5.98295 15.2574 5.96022C15.2764 5.97158 15.289 5.98295 15.308 6C15.3901 6 15.466 5.98295 15.5292 5.96022C15.5482 5.97158 15.5608 5.98295 15.5798 6C15.6619 6 15.7378 5.98295 15.801 5.96022C15.8199 5.97158 15.8326 5.98295 15.8515 6C15.9337 6 16.0096 5.98295 16.0728 5.96022C16.0917 5.97158 16.1044 5.98295 16.1233 6C16.2055 6 16.2813 5.98295 16.3445 5.96022C16.3635 5.97158 16.3761 5.98295 16.3951 6C16.4773 6 16.5531 5.98295 16.6163 5.96022C16.6353 5.97158 16.6479 5.98295 16.6669 6C16.749 6 16.8249 5.98295 16.8881 5.96022C16.907 5.97158 16.9197 5.98295 16.9386 6C17.0208 6 17.0967 5.98295 17.1599 5.96022C17.1788 5.97158 17.1915 5.98295 17.2104 6C17.2926 6 17.3684 5.98295 17.4316 5.96022C17.4506 5.97158 17.4632 5.98295 17.4822 6C17.5644 6 17.6402 5.98295 17.7034 5.96022C17.7224 5.97158 17.735 5.98295 17.754 6C17.8361 6 17.912 5.98295 17.9752 5.96022C17.9942 5.97158 18.0068 5.98295 18.0258 6C18.1079 6 18.1838 5.98295 18.247 5.96022C18.2659 5.97158 18.2786 5.98295 18.2975 6C18.3797 6 18.4555 5.98295 18.5187 5.96022C18.5377 5.97158 18.5504 5.98295 18.5693 6C18.6515 6 18.7273 5.98295 18.7905 5.96022C18.8095 5.97158 18.8221 5.98295 18.8411 6C18.9233 6 18.9991 5.98295 19.0623 5.96022C19.0813 5.97158 19.0939 5.98295 19.1129 6C19.195 6 19.2709 5.98295 19.3341 5.96022C19.353 5.97158 19.3657 5.98295 19.3846 6C19.4668 6 19.5426 5.98295 19.6059 5.96022C19.6248 5.97158 19.6375 5.98295 19.6564 6C19.7386 6 19.8144 5.98295 19.8776 5.96022C19.8966 5.97158 19.9092 5.98295 19.9282 6C20.0104 6 20.0862 5.98295 20.1494 5.96022C20.1684 5.97158 20.181 5.98295 20.2 6C20.2821 6 20.358 5.98295 20.4212 5.96022C20.4401 5.97158 20.4528 5.98295 20.4717 6C20.5539 6 20.6298 5.98295 20.693 5.96022C20.7119 5.97158 20.7246 5.98295 20.7435 6C20.8257 6 20.9015 5.98295 20.9647 5.96022C20.9837 5.97158 20.9963 5.98295 21.0153 6C21.0975 6 21.1733 5.98295 21.2365 5.96022C21.2555 5.97158 21.2681 5.98295 21.2871 6C21.3692 6 21.4451 5.98295 21.5083 5.96022C21.5273 5.97158 21.5399 5.98295 21.5589 6C21.641 6 21.7169 5.98295 21.7801 5.96022C21.799 5.97158 21.8117 5.98295 21.8306 6C21.9128 6 21.9886 5.98295 22.0518 5.96022C22.0708 5.97158 22.0834 5.98295 22.1024 6C22.1846 6 22.2604 5.98295 22.3236 5.96022C22.3426 5.97158 201.185 5.98295 201.204 6C201.286 6 201.362 5.98295 201.425 5.96022C201.444 5.97158 201.595 5.94317 201.614 5.96022C201.697 5.96022 201.634 5.98295 201.697 5.96022C201.716 5.97158 201.826 5.96022 201.748 6C201.83 6 201.906 5.98295 201.969 5.96022C201.988 5.97158 202 5.98295 202.019 6C202.101 6 202.177 5.98295 202.241 5.96022C202.259 5.97158 202.272 5.98295 202.291 6C202.373 6 202.449 5.98295 202.512 5.96022C202.531 5.97158 202.544 5.98295 202.563 6C202.645 6 202.721 5.98295 202.784 5.96022C202.803 5.97158 202.816 5.98295 202.835 6C202.917 6 202.993 5.98295 203.056 5.96022C203.075 5.97158 203.087 5.98295 203.106 6C203.189 6 203.264 5.98295 203.328 5.96022C203.347 5.97158 203.359 5.98295 203.378 6C203.46 6 203.536 5.98295 203.599 5.96022C203.618 5.97158 203.631 5.98295 203.65 6C203.732 6 203.808 5.98295 203.871 5.96022C203.89 5.97158 203.903 5.98295 203.922 6C204.004 6 204.08 5.98295 204.143 5.96022C204.162 5.97158 204.175 5.98295 204.194 6C204.276 6 204.352 5.98295 204.415 5.96022C204.434 5.97158 204.446 5.98295 204.465 6C204.547 6 204.623 5.98295 204.686 5.96022C204.705 5.97158 204.718 5.98295 204.737 6C204.819 6 204.895 5.98295 204.958 5.96022C204.977 5.97158 204.99 5.98295 205.009 6C205.091 6 205.167 5.98295 205.23 5.96022C205.249 5.97158 205.262 5.98295 205.281 6C205.363 6 205.439 5.98295 205.502 5.96022C205.521 5.97158 205.533 5.98295 205.552 6C205.635 6 205.71 5.98295 205.774 5.96022C205.793 5.97158 205.805 5.98295 205.824 6C205.906 6 205.982 5.98295 206.045 5.96022C206.064 5.97158 206.077 5.98295 206.096 6C206.178 6 206.254 5.98295 206.317 5.96022C206.336 5.97158 206.349 5.98295 206.368 6C206.45 6 206.526 5.98295 206.589 5.96022C206.608 5.97158 206.621 5.98295 206.639 6C206.722 6 206.798 5.98295 206.861 5.96022C206.88 5.97158 206.892 5.98295 206.911 6C206.993 6 207.069 5.98295 207.132 5.96022C207.151 5.97158 207.164 5.98295 207.183 6C207.265 6 207.341 5.98295 207.404 5.96022C207.423 5.97158 207.436 5.98295 207.455 6C207.537 6 207.613 5.98295 207.676 5.96022C207.695 5.97158 207.708 5.98295 207.727 6C207.809 6 207.885 5.98295 207.948 5.96022C207.967 5.97158 207.979 5.98295 207.998 6C208.081 6 208.156 5.98295 208.22 5.96022C208.239 5.97158 208.251 5.98295 208.27 6C208.352 6 208.428 5.98295 208.491 5.96022C208.51 5.97158 208.523 5.98295 208.542 6C208.624 6 208.7 5.98295 208.763 5.96022C208.782 5.97158 208.795 5.98295 208.814 6C208.896 6 208.972 5.98295 209.035 5.96022C209.054 5.97158 209.067 5.98295 209.085 6C209.168 6 209.244 5.98295 209.307 5.96022C209.326 5.97158 209.338 5.98295 209.357 6C209.439 6 209.515 5.98295 209.578 5.96022C209.597 5.97158 209.61 5.98295 209.629 6C209.711 6 209.787 5.98295 209.85 5.96022C209.869 5.97158 209.882 5.98295 209.901 6C209.983 6 210.059 5.98295 210.122 5.96022C210.141 5.97158 210.154 5.98295 210.173 6C210.255 6 210.331 5.98295 210.394 5.96022C210.413 5.97158 210.425 5.98295 210.444 6C210.527 6 210.602 5.98295 210.666 5.96022C210.685 5.97158 210.697 5.98295 210.716 6C210.798 6 210.874 5.98295 210.937 5.96022C210.956 5.97158 210.969 5.98295 210.988 6C211.07 6 211.146 5.98295 211.209 5.96022C211.228 5.97158 211.241 5.98295 211.26 6C211.342 6 211.418 5.98295 211.481 5.96022C211.5 5.97158 211.513 5.98295 211.531 6C211.614 6 211.69 5.98295 211.753 5.96022C211.772 5.97158 211.784 5.98295 211.803 6C211.885 6 211.961 5.98295 212.024 5.96022C212.043 5.97158 212.056 5.98295 212.075 6C212.157 6 212.233 5.98295 212.296 5.96022C212.315 5.97158 212.328 5.98295 212.347 6C212.429 6 212.505 5.98295 212.568 5.96022C212.587 5.97158 212.6 5.98295 212.619 6C212.701 6 212.777 5.98295 212.84 5.96022C212.859 5.97158 212.871 5.98295 212.89 6C212.973 6 213.048 5.98295 213.112 5.96022C213.131 5.97158 213.143 5.98295 213.162 6C213.244 6 213.32 5.98295 213.383 5.96022C213.402 5.97158 213.415 5.98295 213.434 6C213.516 6 213.592 5.98295 213.655 5.96022C213.674 5.97158 213.687 5.98295 213.706 6C213.788 6 213.864 5.98295 213.927 5.96022C213.946 5.97158 213.959 5.98295 213.977 6C214.06 6 214.135 5.98295 214.199 5.96022C214.218 5.97158 214.23 5.98295 214.249 6C214.331 6 214.407 5.98295 214.47 5.96022C214.489 5.97158 214.502 5.98295 214.521 6C214.603 6 214.679 5.98295 214.742 5.96022C214.761 5.97158 214.774 5.98295 214.793 6C214.875 6 214.951 5.98295 215.014 5.96022C215.033 5.97158 215.046 5.98295 215.065 6C215.147 6 215.223 5.98295 215.286 5.96022C215.305 5.97158 215.317 5.98295 215.336 6C215.419 6 215.494 5.98295 215.558 5.96022C215.577 5.97158 215.589 5.98295 215.608 6C215.69 6 215.766 5.98295 215.829 5.96022C215.848 5.97158 215.861 5.98295 215.88 6C215.962 6 216.038 5.98295 216.101 5.96022C216.12 5.97158 216.133 5.98295 216.152 6C216.234 6 216.31 5.98295 216.373 5.96022C216.392 5.97158 216.405 5.98295 216.423 6C216.506 6 216.581 5.98295 216.645 5.96022C216.664 5.97158 216.676 5.98295 216.695 6C216.777 6 216.853 5.98295 216.916 5.96022C216.935 5.97158 216.948 5.98295 216.967 6C217.049 6 217.125 5.98295 217.188 5.96022C217.207 5.97158 217.22 5.98295 217.239 6C217.321 6 217.397 5.98295 217.46 5.96022C217.479 5.97158 217.492 5.98295 217.511 6C217.593 6 217.669 5.98295 217.732 5.96022C217.751 5.97158 217.763 5.98295 217.782 6C217.865 6 217.94 5.98295 218.004 5.96022C218.023 5.97158 218.035 5.98295 218.054 6C218.136 6 218.212 5.98295 218.275 5.96022C218.294 5.97158 218.307 5.98295 218.326 6C218.408 6 218.484 5.98295 218.547 5.96022C218.566 5.97158 218.579 5.98295 218.598 6C218.68 6 218.756 5.98295 218.819 5.96022C218.838 5.97158 218.85 5.98295 218.869 6C218.952 6 219.027 5.98295 219.091 5.96022C219.11 5.97158 219.122 5.98295 219.141 6C219.223 6 219.299 5.98295 219.362 5.96022C219.381 5.97158 219.394 5.98295 219.413 6C219.495 6 219.571 5.98295 219.634 5.96022C219.653 5.97158 219.666 5.98295 219.685 6C219.767 6 219.843 5.98295 219.906 5.96022C219.925 5.97158 219.938 5.98295 219.957 6C220.039 6 220.115 5.98295 220.178 5.96022C220.197 5.97158 220.209 5.98295 220.228 6C220.311 6 220.386 5.98295 220.45 5.96022C220.469 5.97158 220.481 5.98295 220.5 6C220.582 6 220.658 5.98295 220.721 5.96022C220.74 5.97158 220.753 5.98295 220.772 6C220.854 6 220.93 5.98295 220.993 5.96022C221.012 5.97158 221.025 5.98295 221.044 6C221.126 6 221.202 5.98295 221.265 5.96022C221.284 5.97158 221.296 5.98295 221.315 6C221.398 6 221.473 5.98295 221.537 5.96022C221.556 5.97158 221.568 5.98295 221.587 6C221.669 6 221.745 5.98295 221.808 5.96022C221.827 5.97158 221.84 5.98295 221.859 6C221.941 6 222.017 5.98295 222.08 5.96022C222.099 5.97158 222.112 5.98295 222.131 6C222.213 6 222.289 5.98295 222.352 5.96022C222.371 5.97158 222.384 5.98295 222.403 6C222.485 6 222.561 5.98295 222.624 5.96022C222.643 5.97158 222.655 5.98295 222.674 6C222.757 6 222.832 5.98295 222.896 5.96022C222.915 5.97158 222.927 5.98295 222.946 6C223.028 6 223.104 5.98295 223.167 5.96022C223.186 5.97158 223.199 5.98295 223.218 6C223.566 6 223.736 5.74426 224.065 5.64196C224.077 5.52261 224.153 5.36917 223.983 5.28392C224.179 5.37485 224.286 5.23277 224.387 5.15321C224.893 4.92588 225.057 4.60194 224.747 4.26095Z" fill="#1A75FF"/>
</g>
<defs>
<clipPath id="clip0_135_90">
<rect width="274" height="6" fill="white"/>
</clipPath>
</defs>
</svg>
