<svg width="24" height="24" viewBox="0 0 24 24" fill="none" xmlns="http://www.w3.org/2000/svg">
<path d="M21.9089 5.05646L21.9085 5.05614C21.8831 5.03531 21.8538 5.01969 21.8224 5.01017C21.7909 5.00066 21.7579 4.99743 21.7252 5.00068C21.6925 5.00393 21.6608 5.01359 21.6318 5.02912C21.6029 5.04464 21.5773 5.06571 21.5565 5.09114L15.3315 12.7006L14.9816 13.1283L14.5909 12.7375L10.6776 8.82273L21.9089 5.05646ZM21.9089 5.05646C21.9343 5.07727 21.9554 5.10288 21.9709 5.13183C21.9864 5.16079 21.9961 5.19252 21.9993 5.22521C22.0026 5.2579 21.9993 5.29091 21.9898 5.32236C21.9803 5.3538 21.9647 5.38306 21.9439 5.40846L21.9435 5.40888M21.9089 5.05646L21.9435 5.40888M21.9435 5.40888L15.1937 13.6586C15.1716 13.6856 15.1441 13.7077 15.1129 13.7234C15.0818 13.7391 15.0477 13.7481 15.0128 13.7499C14.978 13.7516 14.9431 13.746 14.9106 13.7335C14.8781 13.721 14.8487 13.7019 14.824 13.6774C14.8239 13.6773 14.8238 13.6772 14.8237 13.6771L10.9436 9.79695L10.5298 9.38319M21.9435 5.40888L10.5298 9.38319M10.5298 9.38319L10.1856 9.85641M10.5298 9.38319L10.1856 9.85641M10.1856 9.85641L4.70864 17.3873C4.66884 17.4351 4.61257 17.4664 4.55077 17.475C4.48669 17.4839 4.42167 17.4676 4.36936 17.4295C4.31706 17.3915 4.28154 17.3346 4.27028 17.2709C4.25942 17.2094 4.27195 17.1462 4.30527 17.0936L10.2984 8.85309L10.2986 8.85273M10.1856 9.85641L10.2986 8.85273M10.2986 8.85273C10.3199 8.82349 10.3472 8.7992 10.3787 8.78153M10.2986 8.85273L10.3787 8.78153M10.3787 8.78153C10.4102 8.76385 10.4452 8.75323 10.4812 8.75038M10.3787 8.78153L10.4812 8.75038M10.4812 8.75038C10.5172 8.74753 10.5534 8.75252 10.5874 8.76501M10.4812 8.75038L10.5874 8.76501M10.5874 8.76501C10.6212 8.77746 10.6519 8.79707 10.6774 8.82249L10.5874 8.76501ZM1.5 23H23.5V23.5H0.5V0.5H1V22.5V23H1.5Z" stroke="url(#paint0_linear_114_11)"/>
<defs>
<linearGradient id="paint0_linear_114_11" x1="4.76837e-07" y1="24" x2="10.5" y2="8" gradientUnits="userSpaceOnUse">
<stop stop-color="#1975FF"/>
<stop offset="1" stop-color="#33A9FF"/>
</linearGradient>
</defs>
</svg>
