<svg width="16" height="16" viewBox="0 0 16 16" fill="none" xmlns="http://www.w3.org/2000/svg">
<path d="M8.70264 13.1307C10.0871 13.8275 11.7097 14.3357 13.6047 14.5679C14.1781 14.6381 14.6667 14.1777 14.6667 13.6001V12.1141C14.6667 11.6552 14.3544 11.2553 13.9092 11.144L11.8826 10.6373C11.5419 10.5521 11.1814 10.652 10.933 10.9004L8.70264 13.1307ZM8.70264 13.1307C6.10625 11.824 4.34755 9.85416 3.20098 7.79903M3.20098 7.79903C2.14692 5.9097 1.61019 3.94827 1.41555 2.36361C1.34663 1.80248 1.80189 1.33333 2.36723 1.33333H3.84687C4.32355 1.33333 4.73397 1.66979 4.82745 2.13722L5.39505 4.97521C5.46062 5.30307 5.358 5.64201 5.12158 5.87843L3.20098 7.79903Z" stroke="#97A1AF" stroke-width="1.5"/>
</svg>
