<svg width="164" height="33" viewBox="0 0 164 33" fill="none" xmlns="http://www.w3.org/2000/svg">
<g clip-path="url(#clip0_175_242)">
<g clip-path="url(#clip1_175_242)">
<path d="M28.6148 18.181C28.2506 17.5157 27.9034 16.8569 27.5862 16.1992C27.0069 15.0007 26.5354 13.8119 26.3165 12.6247C26.2563 12.2921 26.2279 11.9768 26.1972 11.661C26.1502 11.1582 26.1315 10.6712 26.1526 10.2097C26.1893 9.38838 26.3208 8.63011 26.5131 7.94522C26.7699 7.04944 27.1835 6.29008 27.4958 5.63998C27.1787 5.75303 26.8616 5.86175 26.5438 5.96394C26.1833 6.44662 25.7486 7.11575 25.3453 7.95664C25.0686 8.52466 24.8141 9.1753 24.6079 9.88955C23.1236 9.60581 21.6755 9.26717 20.3503 8.86384L20.3901 9.79388C21.6369 10.2613 22.9729 10.6859 24.3403 11.0642C24.1497 12.1236 24.0907 13.2988 24.2558 14.5854C24.3089 14.9892 24.3855 15.3898 24.4735 15.7888C21.614 15.4317 18.5947 14.8898 16.0305 14.1081L16.0709 15.0392C18.7984 16.0606 21.9335 16.8857 24.9263 17.4505C25.3489 18.792 25.8837 20.121 26.375 21.469C22.4707 21.2326 17.2068 20.5912 13.1113 19.341L13.1511 20.2727C17.4859 21.8968 22.8511 23.0204 27.0316 23.3987C27.8859 26.2002 28.2428 29.149 26.7229 32.5338L31.5955 31.2466C33.4819 26.4492 30.8274 22.224 28.6148 18.181Z" fill="#D40000"/>
<path d="M39.327 5.35355C36.4006 5.06873 31.9705 4.37786 27.8159 2.82545L27.5772 2.68956L27.3366 2.82545C23.1833 4.37786 18.8268 5.04101 15.9003 5.32584L15.6387 5.35084L15.6067 5.46933C14.5179 9.05086 10.6075 11.0957 7.51948 12.1801L7.33258 12.2448L7.3784 12.3497C7.76607 13.2069 7.94633 13.8619 7.94633 14.4093C7.94633 16.1786 6.92442 17.831 4.90291 19.3182L4.78173 19.4041L4.89688 19.4927C4.6105 22.2948 18.3674 25.8779 23.1351 25.9611C23.2285 26.5101 23.2568 25.8545 23.2568 26.1763C23.2568 26.2916 23.2544 26.3747 23.2508 26.447C16.9807 26.3954 5.11393 23.6221 1.05524 19.7449C1.05524 19.7449 0.736914 19.44 0.60849 19.3171C0.782723 19.2057 1.21621 18.9306 1.21621 18.9306C2.64809 18.0218 4.35488 16.5004 4.35488 14.4093C4.35488 13.769 4.1101 13.0085 3.60608 12.0845C3.60608 12.0845 3.39025 11.6915 3.30283 11.5322C3.60609 11.4404 4.35609 11.2159 4.35609 11.2159C7.01787 10.4174 11.5854 8.49534 12.257 4.59583C12.257 4.59583 12.336 4.1387 12.368 3.95225C12.7755 3.92562 13.783 3.85767 13.783 3.85767C16.5105 3.67232 21.7731 3.06407 26.3376 1.07192C26.3376 1.07192 27.1919 0.697406 27.5676 0.533792C27.9468 0.697406 28.8011 1.07192 28.8011 1.07192C33.3656 3.06407 38.6259 3.67232 41.3546 3.85767C41.3546 3.85767 42.3632 3.92562 42.7677 3.95225C42.7726 4.1387 42.7774 4.59746 42.7774 4.59746C42.8304 7.52183 45.693 8.71385 46.8071 9.06989C46.4394 9.21339 46.0161 9.37972 45.8112 9.46016C43.0499 8.96498 39.7702 7.85775 39.327 5.35355Z" fill="#D40000"/>
<path d="M49.0041 20.1531C48.3337 20.4167 47.2027 20.7195 45.4446 20.7195C43.3502 20.7195 42.2192 20.2096 42.2192 19.4731C42.2192 18.7175 43.4334 18.3028 46.1561 18.2647L49.0041 18.2267V20.1531ZM54.4905 22.3246C54.1987 21.9093 54.1167 21.2484 54.1167 19.9645V16.4329C54.1167 14.0913 51.1396 13.1846 46.2393 13.1846C43.6022 13.1846 41.1297 13.3738 38.4902 14.1668L40.1247 15.5834C41.3805 15.2431 43.0572 14.9218 45.2348 14.9218C47.3305 14.9218 49.0041 15.3567 49.0041 16.4329C49.0041 16.4889 49.0041 16.584 49.0041 16.6596L45.4856 16.7161C40.4177 16.7917 37.191 17.7929 37.191 19.6432C37.191 21.3989 40.0409 22.5138 43.6866 22.5138C46.3225 22.5138 48.1239 22.0599 49.4238 21.531L50.2618 22.3246H54.4905Z" fill="black"/>
<path d="M66.8497 22.5138C60.3975 22.5138 57.0901 20.4167 57.0901 17.906C57.0901 15.1871 61.4454 13.1846 67.3513 13.1846C70.033 13.1846 71.8755 13.4868 73.0065 13.8081L72.9221 15.6589C71.5378 15.1871 69.9896 14.9218 67.9373 14.9218C64.5442 14.9218 62.1158 16.1302 62.1158 17.7929C62.1158 19.3225 63.9582 20.682 67.8976 20.682C69.7822 20.682 71.205 20.4167 72.5869 20.0585L73.8433 21.55C72.2517 22.0409 69.5724 22.5138 66.8497 22.5138Z" fill="black"/>
<path d="M84.6931 22.5138C78.2421 22.5138 74.9334 20.4167 74.9334 17.906C74.9334 15.1871 79.2888 13.1846 85.1947 13.1846C87.8764 13.1846 89.72 13.4868 90.8511 13.8081L90.7667 15.6589C89.3848 15.1871 87.8354 14.9218 85.7831 14.9218C82.3901 14.9218 79.9592 16.1302 79.9592 17.7929C79.9592 19.3225 81.8028 20.682 85.7409 20.682C87.6244 20.682 89.0508 20.4167 90.4327 20.0585L91.6879 21.55C90.0963 22.0409 87.4158 22.5138 84.6931 22.5138Z" fill="black"/>
<path d="M97.273 12.0149C95.556 12.0149 94.1742 11.4104 94.1742 10.6353C94.1742 9.89933 95.556 9.27641 97.273 9.27641C99.0323 9.27641 100.415 9.88085 100.415 10.6353C100.415 11.3909 99.0323 12.0149 97.273 12.0149ZM94.7602 22.3246H99.7871V13.3928H94.7602V22.3246Z" fill="black"/>
<path d="M117.534 17.8495C117.534 19.5296 115.941 20.757 112.8 20.757C109.742 20.757 107.939 19.5867 107.939 17.8495C107.939 16.1878 109.491 14.9795 112.675 14.9795C115.775 14.9795 117.534 16.1302 117.534 17.8495ZM122.686 17.831C122.686 16.4704 121.765 15.3007 120.048 14.469C118.288 13.6575 115.816 13.1846 112.759 13.1846C109.869 13.1846 107.481 13.6575 105.721 14.45C103.878 15.3007 102.832 16.509 102.832 17.906C102.832 19.341 103.921 20.5689 105.888 21.3989C107.607 22.1164 109.953 22.5138 112.718 22.5138C115.692 22.5138 118.12 22.0409 119.879 21.2288C121.723 20.3988 122.686 19.1904 122.686 17.831Z" fill="black"/>
<path d="M138.646 22.3246V17.0749C138.646 16.1498 138.269 15.13 135.712 15.13C133.956 15.13 132.237 15.5453 130.687 16.0747V22.3246H125.661V13.3928H129.933L130.477 14.356C132.614 13.6385 134.749 13.1846 137.432 13.1846C140.446 13.1846 143.672 13.9972 143.672 16.3954V22.3246H138.646Z" fill="black"/>
<path d="M158.291 20.1531C157.62 20.4167 156.491 20.7195 154.73 20.7195C152.636 20.7195 151.506 20.2096 151.506 19.4731C151.506 18.7175 152.72 18.3028 155.443 18.2647L158.291 18.2267V20.1531ZM163.778 22.3246C163.484 21.9093 163.401 21.2484 163.401 19.9645V16.4329C163.401 14.0913 160.425 13.1846 155.526 13.1846C152.885 13.1846 150.415 13.3738 147.778 14.1668L149.41 15.5834C150.668 15.2431 152.343 14.9218 154.523 14.9218C156.615 14.9218 158.291 15.3567 158.291 16.4329C158.291 16.4889 158.291 16.584 158.291 16.6596L154.772 16.7161C149.703 16.7917 146.478 17.7929 146.478 19.6432C146.478 21.3989 149.327 22.5138 152.971 22.5138C155.61 22.5138 157.412 22.0599 158.709 21.531L159.547 22.3246H163.778Z" fill="black"/>
</g>
</g>
<defs>
<clipPath id="clip0_175_242">
<rect width="164" height="33" fill="white"/>
</clipPath>
<clipPath id="clip1_175_242">
<rect width="164" height="33" fill="white"/>
</clipPath>
</defs>
</svg>
