<svg width="182" height="32" viewBox="0 0 182 32" fill="none" xmlns="http://www.w3.org/2000/svg">
<g clip-path="url(#clip0_175_247)">
<path d="M0.666687 0H32.6667V7.2381H0.666687V0Z" fill="#F3733F"/>
<path d="M0.666687 12.381H32.6667V19.619H0.666687V12.381Z" fill="#F3733F"/>
<path d="M0.666687 24.7619H32.6667V32H0.666687V24.7619Z" fill="#F3733F"/>
<path d="M52.5521 26.6667H40.8789V5.72657H52.5521V7.88933H43.3138V14.6354H51.9935V16.7839H43.3138V24.4896H52.5521V26.6667Z" fill="#141C24"/>
<path d="M67.5912 26.6667V16.5117C67.5912 15.2322 67.2999 14.2774 66.7175 13.6471C66.135 13.0169 65.2231 12.7018 63.9818 12.7018C62.3394 12.7018 61.1363 13.1458 60.3724 14.0339C59.6085 14.9219 59.2266 16.3876 59.2266 18.431V26.6667H56.849V10.9688H58.7826L59.1693 13.1172H59.2839C59.7708 12.3438 60.4536 11.747 61.332 11.3268C62.2105 10.8971 63.1893 10.6823 64.2682 10.6823C66.1589 10.6823 67.5816 11.1406 68.5365 12.0573C69.4913 12.9644 69.9688 14.4206 69.9688 16.4258V26.6667H67.5912Z" fill="#141C24"/>
<path d="M85.6094 26.6667V16.5117C85.6094 15.2322 85.3182 14.2774 84.7357 13.6471C84.1532 13.0169 83.2413 12.7018 82 12.7018C80.3577 12.7018 79.1545 13.1458 78.3906 14.0339C77.6268 14.9219 77.2448 16.3876 77.2448 18.431V26.6667H74.8672V10.9688H76.8008L77.1875 13.1172H77.3021C77.7891 12.3438 78.4718 11.747 79.3503 11.3268C80.2287 10.8971 81.2075 10.6823 82.2865 10.6823C84.1771 10.6823 85.5998 11.1406 86.5547 12.0573C87.5096 12.9644 87.987 14.4206 87.987 16.4258V26.6667H85.6094Z" fill="#141C24"/>
<path d="M106.435 18.8034C106.435 21.3624 105.79 23.3629 104.501 24.8047C103.212 26.237 101.431 26.9531 99.1589 26.9531C97.7552 26.9531 96.5091 26.6237 95.4206 25.9649C94.332 25.306 93.4918 24.3607 92.8998 23.1289C92.3077 21.8971 92.0117 20.4553 92.0117 18.8034C92.0117 16.2444 92.6515 14.2535 93.931 12.8307C95.2105 11.3984 96.9866 10.6823 99.2591 10.6823C101.455 10.6823 103.198 11.4128 104.487 12.8737C105.786 14.3346 106.435 16.3112 106.435 18.8034ZM94.4753 18.8034C94.4753 20.8086 94.8763 22.3364 95.6784 23.3867C96.4805 24.4371 97.6597 24.9622 99.2162 24.9622C100.773 24.9622 101.952 24.4418 102.754 23.4011C103.566 22.3507 103.971 20.8182 103.971 18.8034C103.971 16.8077 103.566 15.2943 102.754 14.263C101.952 13.2222 100.763 12.7018 99.1875 12.7018C97.6311 12.7018 96.4566 13.2127 95.6641 14.2344C94.8715 15.2561 94.4753 16.7791 94.4753 18.8034Z" fill="#141C24"/>
<path d="M114.055 26.6667L108.096 10.9688H110.646L114.026 20.2787C114.79 22.4557 115.239 23.8689 115.372 24.5182H115.487C115.592 24.0122 115.921 22.9666 116.475 21.3815C117.039 19.7869 118.294 16.316 120.242 10.9688H122.792L116.833 26.6667H114.055Z" fill="#141C24"/>
<path d="M134.966 26.6667L134.494 24.4323H134.379C133.596 25.4158 132.813 26.0842 132.03 26.4375C131.257 26.7813 130.287 26.9531 129.122 26.9531C127.566 26.9531 126.344 26.5521 125.456 25.75C124.577 24.9479 124.138 23.8069 124.138 22.3268C124.138 19.1567 126.673 17.4952 131.744 17.3425L134.408 17.2565V16.2826C134.408 15.0508 134.14 14.1437 133.605 13.5612C133.08 12.9692 132.235 12.6732 131.07 12.6732C129.762 12.6732 128.282 13.0742 126.63 13.8763L125.9 12.0573C126.673 11.6372 127.518 11.3077 128.435 11.069C129.361 10.8303 130.287 10.7109 131.214 10.7109C133.085 10.7109 134.47 11.1263 135.367 11.957C136.274 12.7878 136.728 14.1198 136.728 15.9531V26.6667H134.966ZM129.595 24.9909C131.075 24.9909 132.235 24.5851 133.076 23.7734C133.925 22.9618 134.35 21.8255 134.35 20.3646V18.9466L131.973 19.0469C130.082 19.1137 128.717 19.4097 127.876 19.9349C127.046 20.4505 126.63 21.2574 126.63 22.3555C126.63 23.2149 126.888 23.8689 127.404 24.3177C127.929 24.7665 128.659 24.9909 129.595 24.9909Z" fill="#141C24"/>
<path d="M146.711 24.9909C147.131 24.9909 147.537 24.9622 147.928 24.905C148.32 24.8381 148.63 24.7713 148.859 24.7044V26.5234C148.602 26.6476 148.22 26.7478 147.714 26.8242C147.217 26.9102 146.768 26.9531 146.367 26.9531C143.331 26.9531 141.813 25.3537 141.813 22.155V12.8164H139.564V11.6706L141.813 10.6823L142.815 7.33074H144.19V10.9688H148.745V12.8164H144.19V22.0547C144.19 23 144.415 23.7257 144.863 24.2318C145.312 24.7379 145.928 24.9909 146.711 24.9909Z" fill="#141C24"/>
<path d="M158.642 26.9531C156.322 26.9531 154.488 26.2465 153.142 24.8333C151.805 23.4201 151.137 21.4579 151.137 18.9466C151.137 16.4162 151.757 14.4063 152.999 12.9167C154.25 11.4271 155.925 10.6823 158.026 10.6823C159.993 10.6823 161.549 11.3316 162.695 12.6302C163.841 13.9193 164.414 15.6237 164.414 17.7435V19.2474H153.6C153.648 21.0903 154.111 22.4892 154.99 23.444C155.878 24.3989 157.124 24.8763 158.728 24.8763C160.418 24.8763 162.089 24.523 163.741 23.8164V25.9362C162.901 26.2991 162.103 26.5569 161.349 26.7096C160.604 26.872 159.702 26.9531 158.642 26.9531ZM157.997 12.6732C156.737 12.6732 155.73 13.0838 154.975 13.905C154.23 14.7261 153.791 15.8624 153.658 17.3138H161.865C161.865 15.8147 161.53 14.6688 160.862 13.8763C160.194 13.0742 159.239 12.6732 157.997 12.6732Z" fill="#141C24"/>
<path d="M170.831 18.6315C171.241 18.0491 171.867 17.2852 172.707 16.3399L177.777 10.9688H180.599L174.24 17.6576L181.043 26.6667H178.164L172.621 19.2474L170.831 20.7943V26.6667H168.482V4.38022H170.831V16.1966C170.831 16.7218 170.793 17.5334 170.716 18.6315H170.831Z" fill="#141C24"/>
</g>
<defs>
<clipPath id="clip0_175_247">
<rect width="181.333" height="32" fill="white" transform="translate(0.666687)"/>
</clipPath>
</defs>
</svg>
