<svg width="23" height="23" viewBox="0 0 23 23" fill="none" xmlns="http://www.w3.org/2000/svg">
<g clip-path="url(#clip0_135_101)">
<g clip-path="url(#clip1_135_101)">
<mask id="path-1-inside-1_135_101" fill="white">
<path d="M4.26938 1.94063C4.40434 1.78284 4.57188 1.65616 4.76047 1.56931C4.94907 1.48245 5.15424 1.43749 5.36188 1.4375H17.6381C17.8458 1.43749 18.0509 1.48245 18.2395 1.56931C18.4281 1.65616 18.5957 1.78284 18.7306 1.94063L22.4811 6.31638C22.8159 6.70713 23 7.20477 23 7.71937V8.08594C23.0001 8.79747 22.7778 9.49124 22.3644 10.0703C21.9509 10.6493 21.3668 11.0847 20.6938 11.3156C20.0208 11.5465 19.2924 11.5614 18.6105 11.3581C17.9287 11.1548 17.3273 10.7435 16.8906 10.1818C16.5717 10.5926 16.163 10.925 15.6958 11.1534C15.2286 11.3819 14.7154 11.5005 14.1953 11.5C13.6752 11.5006 13.1619 11.3821 12.6947 11.1536C12.2275 10.9251 11.8188 10.5927 11.5 10.1818C11.1812 10.5927 10.7725 10.9251 10.3053 11.1536C9.83807 11.3821 9.32477 11.5006 8.80469 11.5C8.28461 11.5006 7.7713 11.3821 7.30411 11.1536C6.83691 10.9251 6.42822 10.5927 6.10938 10.1818C5.67265 10.7435 5.07133 11.1548 4.38946 11.3581C3.70759 11.5614 2.97924 11.5465 2.30622 11.3156C1.63319 11.0847 1.04912 10.6493 0.635637 10.0703C0.222154 9.49124 -7.84854e-05 8.79747 2.07928e-08 8.08594V7.71937C1.81233e-05 7.20477 0.184081 6.70713 0.518938 6.31638L4.27081 1.93919L4.26938 1.94063ZM6.82812 8.08594C6.82813 8.61015 7.03637 9.1129 7.40705 9.48358C7.77772 9.85426 8.28047 10.0625 8.80469 10.0625C9.3289 10.0625 9.83165 9.85426 10.2023 9.48358C10.573 9.1129 10.7813 8.61015 10.7812 8.08594C10.7812 7.89531 10.857 7.7125 10.9918 7.5777C11.1266 7.44291 11.3094 7.36719 11.5 7.36719C11.6906 7.36719 11.8734 7.44291 12.0082 7.5777C12.143 7.7125 12.2188 7.89531 12.2188 8.08594C12.2188 8.61015 12.427 9.1129 12.7977 9.48358C13.1683 9.85426 13.6711 10.0625 14.1953 10.0625C14.7195 10.0625 15.2223 9.85426 15.593 9.48358C15.9636 9.1129 16.1719 8.61015 16.1719 8.08594C16.1719 7.89531 16.2476 7.7125 16.3824 7.5777C16.5172 7.44291 16.7 7.36719 16.8906 7.36719C17.0812 7.36719 17.2641 7.44291 17.3989 7.5777C17.5337 7.7125 17.6094 7.89531 17.6094 8.08594C17.6094 8.61015 17.8176 9.1129 18.1883 9.48358C18.559 9.85426 19.0617 10.0625 19.5859 10.0625C20.1102 10.0625 20.6129 9.85426 20.9836 9.48358C21.3543 9.1129 21.5625 8.61015 21.5625 8.08594V7.71937C21.5625 7.54806 21.5013 7.38238 21.39 7.25219L17.6381 2.875H5.36188L1.61 7.25219C1.49866 7.38238 1.43749 7.54806 1.4375 7.71937V8.08594C1.4375 8.61015 1.64574 9.1129 2.01642 9.48358C2.3871 9.85426 2.88985 10.0625 3.41406 10.0625C3.93828 10.0625 4.44103 9.85426 4.8117 9.48358C5.18238 9.1129 5.39062 8.61015 5.39062 8.08594C5.39062 7.89531 5.46635 7.7125 5.60114 7.5777C5.73593 7.44291 5.91875 7.36719 6.10938 7.36719C6.3 7.36719 6.48282 7.44291 6.61761 7.5777C6.7524 7.7125 6.82812 7.89531 6.82812 8.08594ZM2.15625 12.2188C2.34687 12.2188 2.52969 12.2945 2.66448 12.4293C2.79927 12.5641 2.875 12.7469 2.875 12.9375V21.5625H4.3125V14.375C4.3125 13.9938 4.46395 13.6281 4.73353 13.3585C5.00312 13.089 5.36875 12.9375 5.75 12.9375H10.0625C10.4437 12.9375 10.8094 13.089 11.079 13.3585C11.3485 13.6281 11.5 13.9938 11.5 14.375V21.5625H20.125V12.9375C20.125 12.7469 20.2007 12.5641 20.3355 12.4293C20.4703 12.2945 20.6531 12.2188 20.8438 12.2188C21.0344 12.2188 21.2172 12.2945 21.352 12.4293C21.4868 12.5641 21.5625 12.7469 21.5625 12.9375V21.5625H22.2812C22.4719 21.5625 22.6547 21.6382 22.7895 21.773C22.9243 21.9078 23 22.0906 23 22.2812C23 22.4719 22.9243 22.6547 22.7895 22.7895C22.6547 22.9243 22.4719 23 22.2812 23H0.71875C0.528126 23 0.345309 22.9243 0.210517 22.7895C0.0757253 22.6547 2.07928e-08 22.4719 2.07928e-08 22.2812C2.07928e-08 22.0906 0.0757253 21.9078 0.210517 21.773C0.345309 21.6382 0.528126 21.5625 0.71875 21.5625H1.4375V12.9375C1.4375 12.7469 1.51323 12.5641 1.64802 12.4293C1.78281 12.2945 1.96563 12.2188 2.15625 12.2188ZM5.75 21.5625H10.0625V14.375H5.75V21.5625ZM12.9375 14.375C12.9375 13.9938 13.089 13.6281 13.3585 13.3585C13.6281 13.089 13.9938 12.9375 14.375 12.9375H17.25C17.6312 12.9375 17.9969 13.089 18.2665 13.3585C18.536 13.6281 18.6875 13.9938 18.6875 14.375V18.6875C18.6875 19.0687 18.536 19.4344 18.2665 19.704C17.9969 19.9735 17.6312 20.125 17.25 20.125H14.375C13.9938 20.125 13.6281 19.9735 13.3585 19.704C13.089 19.4344 12.9375 19.0687 12.9375 18.6875V14.375ZM17.25 14.375H14.375V18.6875H17.25V14.375Z"/>
</mask>
<path d="M4.26938 1.94063C4.40434 1.78284 4.57188 1.65616 4.76047 1.56931C4.94907 1.48245 5.15424 1.43749 5.36188 1.4375H17.6381C17.8458 1.43749 18.0509 1.48245 18.2395 1.56931C18.4281 1.65616 18.5957 1.78284 18.7306 1.94063L22.4811 6.31638C22.8159 6.70713 23 7.20477 23 7.71937V8.08594C23.0001 8.79747 22.7778 9.49124 22.3644 10.0703C21.9509 10.6493 21.3668 11.0847 20.6938 11.3156C20.0208 11.5465 19.2924 11.5614 18.6105 11.3581C17.9287 11.1548 17.3273 10.7435 16.8906 10.1818C16.5717 10.5926 16.163 10.925 15.6958 11.1534C15.2286 11.3819 14.7154 11.5005 14.1953 11.5C13.6752 11.5006 13.1619 11.3821 12.6947 11.1536C12.2275 10.9251 11.8188 10.5927 11.5 10.1818C11.1812 10.5927 10.7725 10.9251 10.3053 11.1536C9.83807 11.3821 9.32477 11.5006 8.80469 11.5C8.28461 11.5006 7.7713 11.3821 7.30411 11.1536C6.83691 10.9251 6.42822 10.5927 6.10938 10.1818C5.67265 10.7435 5.07133 11.1548 4.38946 11.3581C3.70759 11.5614 2.97924 11.5465 2.30622 11.3156C1.63319 11.0847 1.04912 10.6493 0.635637 10.0703C0.222154 9.49124 -7.84854e-05 8.79747 2.07928e-08 8.08594V7.71937C1.81233e-05 7.20477 0.184081 6.70713 0.518938 6.31638L4.27081 1.93919L4.26938 1.94063ZM6.82812 8.08594C6.82813 8.61015 7.03637 9.1129 7.40705 9.48358C7.77772 9.85426 8.28047 10.0625 8.80469 10.0625C9.3289 10.0625 9.83165 9.85426 10.2023 9.48358C10.573 9.1129 10.7813 8.61015 10.7812 8.08594C10.7812 7.89531 10.857 7.7125 10.9918 7.5777C11.1266 7.44291 11.3094 7.36719 11.5 7.36719C11.6906 7.36719 11.8734 7.44291 12.0082 7.5777C12.143 7.7125 12.2188 7.89531 12.2188 8.08594C12.2188 8.61015 12.427 9.1129 12.7977 9.48358C13.1683 9.85426 13.6711 10.0625 14.1953 10.0625C14.7195 10.0625 15.2223 9.85426 15.593 9.48358C15.9636 9.1129 16.1719 8.61015 16.1719 8.08594C16.1719 7.89531 16.2476 7.7125 16.3824 7.5777C16.5172 7.44291 16.7 7.36719 16.8906 7.36719C17.0812 7.36719 17.2641 7.44291 17.3989 7.5777C17.5337 7.7125 17.6094 7.89531 17.6094 8.08594C17.6094 8.61015 17.8176 9.1129 18.1883 9.48358C18.559 9.85426 19.0617 10.0625 19.5859 10.0625C20.1102 10.0625 20.6129 9.85426 20.9836 9.48358C21.3543 9.1129 21.5625 8.61015 21.5625 8.08594V7.71937C21.5625 7.54806 21.5013 7.38238 21.39 7.25219L17.6381 2.875H5.36188L1.61 7.25219C1.49866 7.38238 1.43749 7.54806 1.4375 7.71937V8.08594C1.4375 8.61015 1.64574 9.1129 2.01642 9.48358C2.3871 9.85426 2.88985 10.0625 3.41406 10.0625C3.93828 10.0625 4.44103 9.85426 4.8117 9.48358C5.18238 9.1129 5.39062 8.61015 5.39062 8.08594C5.39062 7.89531 5.46635 7.7125 5.60114 7.5777C5.73593 7.44291 5.91875 7.36719 6.10938 7.36719C6.3 7.36719 6.48282 7.44291 6.61761 7.5777C6.7524 7.7125 6.82812 7.89531 6.82812 8.08594ZM2.15625 12.2188C2.34687 12.2188 2.52969 12.2945 2.66448 12.4293C2.79927 12.5641 2.875 12.7469 2.875 12.9375V21.5625H4.3125V14.375C4.3125 13.9938 4.46395 13.6281 4.73353 13.3585C5.00312 13.089 5.36875 12.9375 5.75 12.9375H10.0625C10.4437 12.9375 10.8094 13.089 11.079 13.3585C11.3485 13.6281 11.5 13.9938 11.5 14.375V21.5625H20.125V12.9375C20.125 12.7469 20.2007 12.5641 20.3355 12.4293C20.4703 12.2945 20.6531 12.2188 20.8438 12.2188C21.0344 12.2188 21.2172 12.2945 21.352 12.4293C21.4868 12.5641 21.5625 12.7469 21.5625 12.9375V21.5625H22.2812C22.4719 21.5625 22.6547 21.6382 22.7895 21.773C22.9243 21.9078 23 22.0906 23 22.2812C23 22.4719 22.9243 22.6547 22.7895 22.7895C22.6547 22.9243 22.4719 23 22.2812 23H0.71875C0.528126 23 0.345309 22.9243 0.210517 22.7895C0.0757253 22.6547 2.07928e-08 22.4719 2.07928e-08 22.2812C2.07928e-08 22.0906 0.0757253 21.9078 0.210517 21.773C0.345309 21.6382 0.528126 21.5625 0.71875 21.5625H1.4375V12.9375C1.4375 12.7469 1.51323 12.5641 1.64802 12.4293C1.78281 12.2945 1.96563 12.2188 2.15625 12.2188ZM5.75 21.5625H10.0625V14.375H5.75V21.5625ZM12.9375 14.375C12.9375 13.9938 13.089 13.6281 13.3585 13.3585C13.6281 13.089 13.9938 12.9375 14.375 12.9375H17.25C17.6312 12.9375 17.9969 13.089 18.2665 13.3585C18.536 13.6281 18.6875 13.9938 18.6875 14.375V18.6875C18.6875 19.0687 18.536 19.4344 18.2665 19.704C17.9969 19.9735 17.6312 20.125 17.25 20.125H14.375C13.9938 20.125 13.6281 19.9735 13.3585 19.704C13.089 19.4344 12.9375 19.0687 12.9375 18.6875V14.375ZM17.25 14.375H14.375V18.6875H17.25V14.375Z" stroke="url(#paint0_linear_135_101)" stroke-width="2" mask="url(#path-1-inside-1_135_101)"/>
</g>
</g>
<defs>
<linearGradient id="paint0_linear_135_101" x1="0.5" y1="22.5" x2="16.5" y2="8" gradientUnits="userSpaceOnUse">
<stop stop-color="#1975FF"/>
<stop offset="1" stop-color="#33A9FF"/>
</linearGradient>
<clipPath id="clip0_135_101">
<rect width="23" height="23" fill="white"/>
</clipPath>
<clipPath id="clip1_135_101">
<rect width="23" height="23" fill="white"/>
</clipPath>
</defs>
</svg>
