<svg width="23" height="22" viewBox="0 0 23 22" fill="none" xmlns="http://www.w3.org/2000/svg">
<g clip-path="url(#clip0_135_97)">
<g clip-path="url(#clip1_135_97)">
<path d="M16.4823 13.9188L16.1674 14.3298L16.5891 14.6302C16.6318 14.6605 16.6668 14.6893 16.6967 14.7182L16.6989 14.7203L22.2331 20.014C22.4067 20.1801 22.4997 20.4004 22.4996 20.6252C22.4996 20.85 22.4063 21.0703 22.2327 21.2363C22.0583 21.403 21.8172 21.5003 21.5615 21.5002C21.3058 21.5001 21.0648 21.4026 20.8906 21.2358L20.8904 21.2357L15.6416 16.2151L16.4535 15.6451H14.871H14.8696H14.008C14.4637 15.3537 14.8899 15.0193 15.28 14.6462C16.0616 13.8986 16.6828 13.0099 17.1071 12.0301C17.5314 11.0503 17.7501 9.99934 17.7501 8.93739C17.7501 6.79173 16.8588 4.7387 15.28 3.22858C13.702 1.71918 11.5663 0.874894 9.34382 0.874894C7.12134 0.874894 4.98566 1.71918 3.40765 3.22858C1.82888 4.7387 0.93757 6.79173 0.93757 8.93739C0.93757 9.99934 1.15627 11.0503 1.58057 12.0301C2.00484 13.0099 2.62607 13.8986 3.40765 14.6462C4.18918 15.3938 5.1158 15.9856 6.13406 16.3891C7.15229 16.7925 8.2429 16.9999 9.34382 16.9999C10.4447 16.9999 11.5354 16.7925 12.5536 16.3891C13.0225 16.2033 13.472 15.9775 13.8969 15.715L14.1416 16.027C12.4271 17.0838 10.3751 17.5461 8.33314 17.3223C6.11263 17.0789 4.07484 16.0429 2.62531 14.428C1.17638 12.8137 0.421335 10.74 0.505068 8.62197C0.588805 6.50387 1.50558 4.48962 3.07888 2.98364C4.65281 1.47707 6.76755 0.591059 9.00119 0.508735C11.2349 0.42641 13.4155 1.15417 15.1071 2.54132C16.798 3.92797 17.8744 5.86983 18.1284 7.97583C18.3822 10.0815 17.7962 12.2039 16.4823 13.9188Z" stroke="url(#paint0_linear_135_97)"/>
</g>
</g>
<defs>
<linearGradient id="paint0_linear_135_97" x1="7.18755" y1="17.1873" x2="13.8687" y2="2.51912" gradientUnits="userSpaceOnUse">
<stop stop-color="#1975FF"/>
<stop offset="1" stop-color="#33A9FF"/>
</linearGradient>
<clipPath id="clip0_135_97">
<rect width="23" height="22" fill="white"/>
</clipPath>
<clipPath id="clip1_135_97">
<rect width="23" height="22" fill="white"/>
</clipPath>
</defs>
</svg>
