<svg width="190" height="32" viewBox="0 0 190 32" fill="none" xmlns="http://www.w3.org/2000/svg">
<g clip-path="url(#clip0_175_243)">
<path d="M15.4888 24.589C15.4888 28.682 12.1707 32 8.07773 32C3.98472 32 0.666687 28.682 0.666687 24.589C0.666687 20.496 3.98472 17.1779 8.07773 17.1779C12.1707 17.1779 15.4888 20.496 15.4888 24.589Z" fill="url(#paint0_linear_175_243)"/>
<path d="M32.6667 7.41104C32.6667 11.504 29.3486 14.8221 25.2556 14.8221C21.1626 14.8221 17.8446 11.504 17.8446 7.41104C17.8446 3.31804 21.1626 0 25.2556 0C29.3486 0 32.6667 3.31804 32.6667 7.41104Z" fill="url(#paint1_linear_175_243)"/>
<path d="M15.4888 7.41104C15.4888 11.504 12.1707 14.8221 8.07773 14.8221C3.98472 14.8221 0.666687 11.504 0.666687 7.41104C0.666687 3.31804 3.98472 0 8.07773 0C12.1707 0 15.4888 3.31804 15.4888 7.41104Z" fill="url(#paint2_linear_175_243)"/>
<path d="M32.6667 24.589C32.6667 28.682 29.3486 32 25.2556 32C21.1626 32 17.8446 28.682 17.8446 24.589C17.8446 20.496 21.1626 17.1779 25.2556 17.1779C29.3486 17.1779 32.6667 20.496 32.6667 24.589Z" fill="url(#paint3_linear_175_243)"/>
<path d="M48.3972 25.568C46.8523 25.568 45.3563 25.3334 43.9092 24.864C42.4816 24.3751 41.3572 23.7494 40.5358 22.9867L41.6212 20.6987C42.4034 21.4027 43.4007 21.9796 44.6132 22.4294C45.8452 22.8596 47.1065 23.0747 48.3972 23.0747C50.0985 23.0747 51.3696 22.7911 52.2105 22.224C53.0514 21.6374 53.4718 20.8649 53.4718 19.9067C53.4718 19.2027 53.2372 18.6356 52.7678 18.2054C52.3181 17.7556 51.7509 17.4134 51.0665 17.1787C50.4016 16.944 49.4532 16.68 48.2212 16.3867C46.6763 16.0151 45.4247 15.6436 44.4665 15.272C43.5278 14.9005 42.7163 14.3334 42.0318 13.5707C41.3669 12.7885 41.0345 11.7422 41.0345 10.432C41.0345 9.33691 41.318 8.34936 41.8852 7.46936C42.4718 6.58936 43.3518 5.88536 44.5252 5.35736C45.6985 4.82936 47.1554 4.56536 48.8958 4.56536C50.1083 4.56536 51.3012 4.7218 52.4745 5.03469C53.6478 5.34758 54.6549 5.79736 55.4958 6.38402L54.5278 8.73069C53.6674 8.18314 52.7483 7.77247 51.7705 7.49869C50.7927 7.20536 49.8345 7.05869 48.8958 7.05869C47.2336 7.05869 45.9821 7.3618 45.1412 7.96802C44.3198 8.57425 43.9092 9.35647 43.9092 10.3147C43.9092 11.0187 44.1438 11.5956 44.6132 12.0454C45.0825 12.4756 45.6594 12.8178 46.3438 13.072C47.0478 13.3067 47.9963 13.5609 49.1892 13.8347C50.7341 14.2062 51.9758 14.5778 52.9145 14.9494C53.8532 15.3209 54.6549 15.888 55.3198 16.6507C56.0043 17.4134 56.3465 18.44 56.3465 19.7307C56.3465 20.8062 56.0532 21.7938 55.4665 22.6934C54.8798 23.5734 53.99 24.2774 52.7972 24.8054C51.6043 25.3138 50.1376 25.568 48.3972 25.568Z" fill="#141C24"/>
<path d="M66.2639 18.088L63.0372 21.08V25.3334H60.2212V3.56802H63.0372V17.5307L71.5146 9.78669H74.9172L68.3759 16.2107L75.5626 25.3334H72.1012L66.2639 18.088Z" fill="#141C24"/>
<path d="M91.2234 9.78669L83.6847 26.888C83.0198 28.472 82.2376 29.5867 81.338 30.232C80.458 30.8774 79.3923 31.2 78.1407 31.2C77.378 31.2 76.6349 31.0729 75.9114 30.8187C75.2074 30.584 74.6207 30.232 74.1514 29.7627L75.354 27.6507C76.1558 28.4134 77.0847 28.7947 78.1407 28.7947C78.8251 28.7947 79.3923 28.6089 79.842 28.2374C80.3114 27.8854 80.7318 27.2694 81.1034 26.3894L81.602 25.304L74.738 9.78669H77.6714L83.098 22.224L88.466 9.78669H91.2234Z" fill="#141C24"/>
<path d="M107.472 17.648C107.472 17.8631 107.453 18.1467 107.414 18.4987H94.8004C94.9764 19.8676 95.5729 20.9725 96.5898 21.8134C97.6262 22.6347 98.9071 23.0454 100.432 23.0454C102.29 23.0454 103.786 22.4196 104.92 21.168L106.475 22.9867C105.771 23.808 104.891 24.4338 103.835 24.864C102.799 25.2942 101.635 25.5094 100.344 25.5094C98.7018 25.5094 97.2449 25.1769 95.9738 24.512C94.7027 23.8276 93.7151 22.8791 93.0111 21.6667C92.3267 20.4542 91.9844 19.0854 91.9844 17.56C91.9844 16.0542 92.3169 14.6951 92.9818 13.4827C93.6662 12.2702 94.5951 11.3316 95.7684 10.6667C96.9613 9.98225 98.3009 9.64002 99.7871 9.64002C101.273 9.64002 102.593 9.98225 103.747 10.6667C104.92 11.3316 105.83 12.2702 106.475 13.4827C107.14 14.6951 107.472 16.0836 107.472 17.648ZM99.7871 12.016C98.4378 12.016 97.3035 12.4267 96.3844 13.248C95.4849 14.0694 94.9569 15.1449 94.8004 16.4747H104.774C104.617 15.1645 104.08 14.0987 103.16 13.2774C102.261 12.4365 101.136 12.016 99.7871 12.016Z" fill="#141C24"/>
<path d="M140.231 4.80002L133.367 25.3334H130.287L124.684 8.93602L119.082 25.3334H115.943L109.079 4.80002H112.1L117.644 21.4907L123.423 4.80002H126.122L131.783 21.5787L137.444 4.80002H140.231Z" fill="#141C24"/>
<path d="M147.896 9.64002C150.047 9.64002 151.689 10.168 152.824 11.224C153.977 12.28 154.554 13.8542 154.554 15.9467V25.3334H151.885V23.28C151.416 24.0036 150.741 24.5609 149.861 24.952C149 25.3236 147.974 25.5094 146.781 25.5094C145.04 25.5094 143.642 25.0889 142.586 24.248C141.55 23.4071 141.032 22.3022 141.032 20.9334C141.032 19.5645 141.53 18.4694 142.528 17.648C143.525 16.8071 145.109 16.3867 147.28 16.3867H151.738V15.8294C151.738 14.6169 151.386 13.688 150.682 13.0427C149.978 12.3974 148.942 12.0747 147.573 12.0747C146.654 12.0747 145.754 12.2311 144.874 12.544C143.994 12.8374 143.251 13.2382 142.645 13.7467L141.472 11.6347C142.273 10.9894 143.232 10.5005 144.346 10.168C145.461 9.81602 146.644 9.64002 147.896 9.64002ZM147.25 23.3387C148.326 23.3387 149.255 23.104 150.037 22.6347C150.819 22.1458 151.386 21.4614 151.738 20.5814V18.4107H147.397C145.011 18.4107 143.818 19.2125 143.818 20.816C143.818 21.5982 144.121 22.2142 144.728 22.664C145.334 23.1138 146.175 23.3387 147.25 23.3387Z" fill="#141C24"/>
<path d="M173.236 9.78669L166.431 25.3334H163.556L156.751 9.78669H159.684L165.023 22.2534L170.479 9.78669H173.236Z" fill="#141C24"/>
<path d="M189.485 17.648C189.485 17.8631 189.466 18.1467 189.427 18.4987H176.813C176.989 19.8676 177.586 20.9725 178.603 21.8134C179.639 22.6347 180.92 23.0454 182.445 23.0454C184.303 23.0454 185.799 22.4196 186.933 21.168L188.488 22.9867C187.784 23.808 186.904 24.4338 185.848 24.864C184.812 25.2942 183.648 25.5094 182.357 25.5094C180.715 25.5094 179.258 25.1769 177.987 24.512C176.716 23.8276 175.728 22.8791 175.024 21.6667C174.34 20.4542 173.997 19.0854 173.997 17.56C173.997 16.0542 174.33 14.6951 174.995 13.4827C175.679 12.2702 176.608 11.3316 177.781 10.6667C178.974 9.98225 180.314 9.64002 181.8 9.64002C183.286 9.64002 184.606 9.98225 185.76 10.6667C186.933 11.3316 187.843 12.2702 188.488 13.4827C189.153 14.6951 189.485 16.0836 189.485 17.648ZM181.8 12.016C180.451 12.016 179.317 12.4267 178.397 13.248C177.498 14.0694 176.97 15.1449 176.813 16.4747H186.787C186.63 15.1645 186.093 14.0987 185.173 13.2774C184.274 12.4365 183.149 12.016 181.8 12.016Z" fill="#141C24"/>
</g>
<defs>
<linearGradient id="paint0_linear_175_243" x1="0.666687" y1="32" x2="37.2492" y2="25.4001" gradientUnits="userSpaceOnUse">
<stop stop-color="#1975FF"/>
<stop offset="1" stop-color="#33A9FF"/>
</linearGradient>
<linearGradient id="paint1_linear_175_243" x1="0.666687" y1="32" x2="37.2492" y2="25.4001" gradientUnits="userSpaceOnUse">
<stop stop-color="#1975FF"/>
<stop offset="1" stop-color="#33A9FF"/>
</linearGradient>
<linearGradient id="paint2_linear_175_243" x1="0.666687" y1="32" x2="37.2492" y2="25.4001" gradientUnits="userSpaceOnUse">
<stop stop-color="#1975FF"/>
<stop offset="1" stop-color="#33A9FF"/>
</linearGradient>
<linearGradient id="paint3_linear_175_243" x1="0.666687" y1="32" x2="37.2492" y2="25.4001" gradientUnits="userSpaceOnUse">
<stop stop-color="#1975FF"/>
<stop offset="1" stop-color="#33A9FF"/>
</linearGradient>
<clipPath id="clip0_175_243">
<rect width="189.333" height="32" fill="white" transform="translate(0.666687)"/>
</clipPath>
</defs>
</svg>
